<svg xmlns="http://www.w3.org/2000/svg" viewBox="0 0 64 64">
  <rect width="64" height="64" rx="14" fill="#ef000c"/>
  <path fill="#ffffff" d="M20.8 43.9c-3.3 0-6-1.1-8.1-3.3-2.1-2.2-3.1-5-3.1-8.5s1-6.4 3.1-8.6c2.1-2.2 4.8-3.3 8.1-3.3 2.7 0 5 .7 6.9 2.1 1.9 1.4 3.1 3.4 3.6 5.9h-6.7c-.3-.9-.8-1.6-1.5-2.1-.7-.5-1.5-.7-2.5-.7-1.5 0-2.6.6-3.4 1.7-.8 1.1-1.2 2.8-1.2 5s.4 3.8 1.2 4.9c.8 1.1 1.9 1.7 3.4 1.7 1.1 0 2-.3 2.7-.8.7-.5 1.2-1.3 1.4-2.4h6.7c-.4 2.6-1.6 4.6-3.5 6.1-1.9 1.5-4.3 2.3-7.1 2.3Zm13.1-.4V20.6h11.8c2.6 0 4.6.5 6 1.6 1.4 1.1 2.1 2.6 2.1 4.6 0 1.2-.3 2.2-.9 3-.6.8-1.5 1.5-2.6 1.9 1.4.4 2.5 1.1 3.2 2 .7.9 1.1 2.1 1.1 3.5 0 2.1-.8 3.7-2.3 4.7-1.5 1.1-3.7 1.6-6.6 1.6H33.9Zm6.3-13.9h4.4c1 0 1.8-.2 2.2-.6.5-.4.7-.9.7-1.7s-.2-1.3-.7-1.7c-.5-.4-1.2-.6-2.2-.6h-4.4v4.6Zm0 9.4h4.9c1.1 0 1.9-.2 2.4-.7.5-.4.8-1.1.8-1.9s-.3-1.5-.8-1.9c-.5-.4-1.3-.7-2.4-.7h-4.9V39Z"/>
</svg>
